<?xml version="1.0" standalone="no"?>
<!DOCTYPE svg PUBLIC "-//W3C//DTD SVG 20010904//EN"
 "http://www.w3.org/TR/2001/REC-SVG-20010904/DTD/svg10.dtd">
<svg version="1.0" xmlns="http://www.w3.org/2000/svg"
 width="1000.000000pt" height="1000.000000pt" viewBox="0 0 1000.000000 1000.000000"
 preserveAspectRatio="xMidYMid meet">
<metadata>
Created by potrace 1.11, written by Peter Selinger 2001-2013
</metadata>
<g transform="translate(0.000000,1000.000000) scale(0.100000,-0.100000)"
fill="#000000" stroke="none">
<path d="M7070 9444 c-129 -75 -253 -146 -275 -158 -94 -54 -120 -71 -128 -81
-6 -8 -4 -43 8 -105 12 -62 155 -424 239 -603 12 -26 10 -32 -28 -91 -23 -35
-59 -97 -80 -138 l-40 -74 -120 -12 c-67 -7 -132 -14 -146 -16 -14 -3 -47 -7
-75 -11 -190 -23 -391 -72 -416 -102 -13 -15 -15 -75 -14 -383 0 -201 4 -371
9 -378 22 -36 220 -81 522 -117 71 -9 140 -17 154 -19 14 -3 39 -5 56 -5 29
-1 35 -7 73 -82 23 -45 59 -107 80 -138 l39 -57 -30 -64 c-112 -247 -219 -533
-232 -621 -5 -37 -3 -48 11 -61 19 -16 140 -87 455 -267 l197 -113 30 21 c52
38 327 366 437 525 l36 51 160 -1 160 0 90 -120 c179 -235 357 -442 401 -466
13 -6 27 -4 50 10 18 11 52 31 77 44 155 85 537 312 547 325 7 9 10 29 6 47
-12 71 -96 305 -176 490 l-86 199 58 96 c32 53 68 115 80 139 18 36 26 42 54
43 17 1 41 3 52 4 11 1 64 8 119 15 54 6 106 13 115 15 9 1 41 6 71 9 99 11
285 53 333 74 l47 21 0 379 c0 292 -3 382 -12 390 -36 29 -194 66 -418 97
-167 23 -167 23 -258 31 l-83 7 -34 68 c-19 37 -55 99 -80 138 l-45 69 56 129
c147 337 211 525 205 600 -1 16 -22 29 -339 211 -286 165 -323 182 -350 166
-42 -27 -238 -257 -393 -462 l-86 -115 -160 -1 -161 -1 -22 34 c-31 48 -188
247 -279 356 -108 128 -178 195 -204 195 -12 -1 -128 -62 -257 -136z m1128
-1137 c106 -37 176 -81 262 -167 85 -85 141 -173 173 -275 32 -101 32 -289 -1
-392 -33 -106 -85 -188 -176 -278 -135 -133 -273 -189 -466 -188 -197 1 -338
61 -476 203 -200 205 -244 496 -116 760 54 111 186 242 302 298 110 55 188 71
320 67 80 -2 122 -9 178 -28z"/>
<path d="M2799 8329 c-56 -12 -94 -66 -118 -167 -23 -101 -56 -298 -71 -427
-6 -49 -13 -100 -15 -112 -2 -12 -7 -60 -11 -105 -7 -86 -17 -118 -36 -118
-17 0 -288 -109 -335 -136 l-41 -23 -287 225 c-158 124 -305 237 -326 251
-107 71 -206 16 -514 -286 -234 -229 -402 -416 -439 -488 -33 -65 -15 -132 62
-222 26 -31 52 -63 59 -71 207 -258 363 -463 363 -478 0 -5 -22 -56 -49 -113
-27 -57 -64 -146 -81 -196 -18 -51 -38 -93 -44 -93 -12 0 -127 -17 -166 -24
-14 -3 -146 -23 -295 -46 -405 -61 -393 -57 -434 -138 -21 -40 -21 -52 -21
-540 0 -275 3 -513 6 -530 4 -17 20 -48 38 -67 30 -35 35 -37 171 -60 115 -20
582 -94 675 -108 21 -3 30 -19 70 -123 25 -65 67 -163 93 -217 l46 -98 -82
-107 c-46 -59 -149 -192 -230 -295 -81 -103 -154 -201 -162 -217 -38 -73 -16
-128 111 -281 80 -96 351 -372 524 -533 119 -111 153 -130 222 -124 44 5 72
23 374 250 l326 246 111 -53 c62 -29 149 -65 195 -81 63 -21 84 -32 87 -48 2
-12 23 -145 45 -296 87 -580 79 -552 156 -590 39 -19 59 -20 558 -20 574 0
565 -1 606 65 19 32 52 149 65 230 6 44 24 155 30 195 14 84 48 387 47 412 -1
24 11 30 118 68 52 18 138 53 190 77 74 35 99 42 112 34 10 -6 145 -111 300
-233 156 -122 299 -231 318 -241 104 -55 220 22 571 379 276 280 369 393 376
457 7 62 -12 95 -152 267 -133 162 -333 423 -342 446 -2 7 10 43 27 81 51 108
96 214 114 270 18 55 22 58 101 68 28 3 61 8 75 10 94 16 342 55 375 60 22 3
81 12 130 20 50 7 108 16 130 19 49 8 83 32 110 77 19 33 20 55 23 553 3 509
2 519 -18 562 -25 50 -66 79 -130 89 -25 4 -54 9 -65 11 -11 1 -141 21 -290
44 -148 22 -303 45 -342 52 -69 10 -73 12 -82 42 -12 42 -81 214 -125 310 -20
43 -36 83 -36 89 0 11 182 254 351 467 105 134 129 175 129 226 0 85 -190 305
-603 697 -168 160 -185 171 -253 171 -61 0 -37 16 -439 -288 l-276 -208 -83
40 c-83 40 -266 112 -285 112 -15 0 -28 29 -35 85 -4 28 -10 65 -12 82 -84
559 -104 677 -118 697 -8 13 -32 34 -53 47 l-38 24 -511 0 c-280 0 -526 -3
-545 -6z m795 -2013 c507 -102 920 -505 1037 -1013 47 -207 33 -523 -32 -716
-112 -333 -353 -615 -663 -778 -363 -190 -842 -190 -1210 -1 -299 153 -555
449 -660 762 -47 141 -59 223 -60 405 -1 237 5 288 61 460 122 378 459 713
844 839 90 29 145 41 284 60 62 9 323 -3 399 -18z"/>
<path d="M7230 4197 c-313 -173 -560 -321 -565 -337 -14 -44 52 -244 175 -530
34 -79 68 -156 75 -170 12 -24 11 -30 -17 -70 -16 -25 -52 -86 -80 -137 -56
-105 -32 -94 -248 -118 -74 -8 -146 -17 -160 -19 -14 -3 -59 -10 -100 -16
-152 -22 -292 -63 -310 -90 -4 -7 -5 -724 -1 -753 3 -25 167 -68 362 -96 188
-28 192 -28 274 -37 39 -3 77 -8 85 -10 8 -1 23 -3 32 -3 12 -1 32 -28 57 -78
22 -43 58 -104 79 -136 l40 -59 -73 -166 c-141 -324 -208 -529 -186 -569 5
-10 83 -60 173 -112 90 -52 228 -132 308 -179 80 -46 156 -86 171 -89 21 -4
36 6 89 59 66 66 305 360 379 464 l43 62 162 -1 161 0 53 -74 c84 -115 282
-360 357 -440 40 -44 75 -73 87 -73 23 0 59 19 373 202 127 73 242 139 257
147 14 7 30 23 36 35 20 45 -50 255 -199 598 l-60 138 40 58 c22 33 57 92 77
133 21 41 38 75 39 76 1 2 24 5 150 19 110 11 146 16 290 39 173 28 257 49
300 74 l30 17 3 377 2 376 -24 16 c-30 20 -132 49 -227 65 -41 7 -83 14 -94
16 -19 4 -220 29 -315 40 -120 13 -112 8 -154 92 -22 42 -57 103 -78 134 l-39
58 47 107 c25 60 52 122 60 138 67 153 132 332 149 413 12 61 12 64 -9 87 -19
20 -357 220 -569 335 -75 40 -78 41 -102 26 -14 -9 -44 -37 -68 -63 -23 -25
-47 -51 -53 -57 -39 -41 -191 -228 -266 -330 -50 -66 -92 -123 -94 -125 -4 -4
-51 -3 -150 3 -23 1 -67 -1 -99 -4 -34 -4 -61 -2 -69 4 -7 6 -42 49 -77 96
-73 97 -60 80 -181 230 -96 119 -229 260 -244 260 -5 0 -52 -24 -104 -53z
m930 -1216 c111 -29 205 -86 301 -181 148 -147 209 -306 196 -515 -9 -151 -61
-274 -165 -395 -81 -94 -207 -171 -337 -205 -121 -32 -309 -17 -428 34 -118
51 -255 176 -321 293 -89 161 -104 382 -37 559 67 176 242 341 421 398 94 29
96 29 205 29 61 0 125 -7 165 -17z"/>
</g>
</svg>
